<svg xmlns="http://www.w3.org/2000/svg" width="78.688" height="73.863" viewBox="0 0 78.688 73.863">
  <g id="shop-cart" transform="translate(0 -14.83)">
    <path id="Caminho_1" data-name="Caminho 1" d="M77.047,27.454a7.481,7.481,0,0,0-5.792-2.684H22.889a7.317,7.317,0,0,0-3.839,1.09l-2.473-8.638a3.29,3.29,0,0,0-3.156-2.391H2.489A2.489,2.489,0,0,0,0,17.319v.26a2.489,2.489,0,0,0,2.489,2.489h9.4l4.8,16.968,6.6,23.41a8.639,8.639,0,0,0,1.529,17,8.446,8.446,0,1,0,16.415,2.8,8.325,8.325,0,0,0-.472-2.782h9.891A8.449,8.449,0,1,0,58.5,71.785H25.46a3.023,3.023,0,0,1-3.042-2.847,2.957,2.957,0,0,1,2.961-3.075H64.8a7.324,7.324,0,0,0,7.093-5.547l6.572-26.452A7.272,7.272,0,0,0,77.047,27.454Zm-18.4,49.992a2.782,2.782,0,1,1-2.782,2.782A2.791,2.791,0,0,1,58.647,77.447Zm-25.85,0a2.782,2.782,0,1,1-2.782,2.782A2.791,2.791,0,0,1,32.8,77.447ZM22.58,37,21.311,32.53a1.561,1.561,0,0,1,.277-1.432,1.6,1.6,0,0,1,1.3-.651h5.3l1.448,6.572H22.58V37Zm1.594,5.661h6.7l1.334,6.084H25.883Zm6.166,17.5a1.635,1.635,0,0,1-1.578-1.2l-1.285-4.555h5.97l1.269,5.743H30.34v.016Zm14.17,0h-4l-1.269-5.743h5.255V60.17Zm0-11.42H38l-1.334-6.084H44.51ZM44.51,37H35.432l-1.448-6.572H44.51ZM54.661,60.17H50.188V54.427h5.678Zm2.408-11.42H50.188V42.665h8.167ZM50.188,37V30.431H60.925L59.542,37Zm16.219,21.93a1.637,1.637,0,0,1-1.594,1.253h-4.36l1.22-5.743H67.53Zm2.522-10.184H62.861l1.285-6.084h6.3Zm4.035-16.285-1.123,4.523H65.333l1.383-6.572h4.653a1.56,1.56,0,0,1,1.285.634A1.58,1.58,0,0,1,72.963,32.465Z" fill="#f0c03b"/>
  </g>
</svg>
